<svg version="1.1" xmlns="http://www.w3.org/2000/svg" viewBox="-264.1919967651367 -1067.0080444335938 5954.56064453125 1380.3520263671876"><desc>Created with Snap</desc><defs></defs><g><rect x="-264.1919967651367" y="-1067.0080444335938" width="5954.56064453125" height="1380.3520263671876" fill="#0560af" style=""></rect><g><g transform="matrix(1.024,0,0,-1.024,0,0)"><path d="M322 -6Q241 -6 177 29Q114 64 78 125Q42 187 42 265Q42 343 78 404Q114 466 177 500Q241 535 322 535Q394 535 450 506Q507 477 538 422L465 375Q440 413 403 432Q366 451 321 451Q269 451 227 428Q186 405 162 362Q139 320 139 265Q139 209 162 166Q186 124 227 101Q269 78 321 78Q366 78 403 97Q440 116 465 154L538 108Q507 53 450 23Q394 -6 322 -6ZM889 -6Q810 -6 747 29Q684 64 648 125Q613 187 613 265Q613 343 648 404Q684 466 747 500Q810 535 889 535Q968 535 1030 500Q1093 466 1128 404Q1164 343 1164 265Q1164 187 1128 125Q1093 64 1030 29Q968 -6 889 -6ZM889 78Q940 78 980 101Q1021 125 1044 167Q1067 210 1067 265Q1067 320 1044 362Q1021 405 980 428Q940 451 889 451Q838 451 797 428Q757 405 733 362Q710 320 710 265Q710 210 733 167Q757 125 797 101Q838 78 889 78ZM1695 530L1791 530L1791 0L1700 0L1700 80Q1671 39 1623 16Q1576 -6 1520 -6Q1414 -6 1353 52Q1292 111 1292 225L1292 530L1388 530L1388 236Q1388 159 1425 119Q1462 80 1531 80Q1607 80 1651 126Q1695 172 1695 256L1695 530ZM2066 441Q2091 487 2140 511Q2189 535 2259 535L2259 442Q2251 443 2237 443Q2159 443 2114 396Q2070 350 2070 264L2070 0L1974 0L1974 530L2066 530L2066 441ZM2536 -6Q2471 -6 2411 11Q2351 29 2317 56L2357 132Q2392 107 2442 92Q2492 77 2543 77Q2669 77 2669 149Q2669 173 2652 187Q2635 201 2609 207Q2584 214 2537 222Q2473 232 2432 245Q2392 258 2363 289Q2334 320 2334 376Q2334 448 2394 491Q2454 535 2555 535Q2608 535 2661 522Q2714 509 2748 487L2707 411Q2642 453 2554 453Q2493 453 2461 433Q2429 413 2429 380Q2429 354 2447 339Q2465 324 2491 317Q2518 310 2566 301Q2630 290 2669 277Q2709 265 2737 235Q2765 205 2765 151Q2765 79 2703 36Q2642 -6 2536 -6ZM3364 262Q3364 251 3362 233L2932 233Q2941 163 2993 120Q3046 78 3124 78Q3219 78 3277 142L3330 80Q3294 38 3240 16Q3187 -6 3121 -6Q3037 -6 2972 28Q2907 63 2871 125Q2836 187 2836 265Q2836 342 2870 404Q2905 466 2965 500Q3026 535 3102 535Q3178 535 3237 500Q3297 466 3330 404Q3364 342 3364 262ZM3102 454Q3033 454 2986 412Q2940 370 2932 302L3272 302Q3264 369 3217 411Q3171 454 3102 454ZM3497 0L3497 742L3593 742L3593 0L3497 0ZM4255 262Q4255 251 4253 233L3823 233Q3832 163 3884 120Q3937 78 4015 78Q4110 78 4168 142L4221 80Q4185 38 4131 16Q4078 -6 4012 -6Q3928 -6 3863 28Q3798 63 3762 125Q3727 187 3727 265Q3727 342 3761 404Q3796 466 3856 500Q3917 535 3993 535Q4069 535 4128 500Q4188 466 4221 404Q4255 342 4255 262ZM3993 454Q3924 454 3877 412Q3831 370 3823 302L4163 302Q4155 369 4108 411Q4062 454 3993 454ZM4619 -6Q4538 -6 4474 29Q4411 64 4375 125Q4339 187 4339 265Q4339 343 4375 404Q4411 466 4474 500Q4538 535 4619 535Q4691 535 4747 506Q4804 477 4835 422L4762 375Q4737 413 4700 432Q4663 451 4618 451Q4566 451 4524 428Q4483 405 4459 362Q4436 320 4436 265Q4436 209 4459 166Q4483 124 4524 101Q4566 78 4618 78Q4663 78 4700 97Q4737 116 4762 154L4835 108Q4804 53 4747 23Q4691 -6 4619 -6ZM5227 100L5257 31Q5236 13 5205 3Q5174 -6 5141 -6Q5061 -6 5017 37Q4973 80 4973 160L4973 451L4883 451L4883 530L4973 530L4973 646L5069 646L5069 530L5221 530L5221 451L5069 451L5069 164Q5069 121 5090 98Q5112 75 5152 75Q5196 75 5227 100Z" fill="#ffffff" style=""></path></g></g></g></svg>